<svg viewBox="0 0 240 34" version="1.1" xmlns="http://www.w3.org/2000/svg" xmlns:xlink="http://www.w3.org/1999/xlink"><title>logo</title><desc>Created with Sketch.</desc><defs></defs><g stroke="none" stroke-width="1" fill="none" fill-rule="evenodd" transform="translate(-90.000000, -41.000000)"><g transform="translate(0.000000, -1.000000)"><g transform="translate(90.000000, 33.000000)"><g transform="translate(0.000000, 9.000000)"><path fill="#0ad287" d="M72.7737985,13.93215 C72.7737985,18.3083891 69.5544922,21.1358753 64.5740541,21.1358753 C64.2086527,21.1358753 63.8315859,21.1194066 63.4685863,21.1005361 L63.2315042,21.0881845 L63.0009411,21.083038 L63.0009411,27.468127 L58.8888889,27.468127 L58.8888889,7.29728427 L59.2261561,7.25645538 C60.9492037,7.03721455 62.5909367,6.93531388 64.2525695,6.93531388 C69.4292607,6.93531388 72.7737985,9.68114232 72.7737985,13.93215 Z M64.8179981,10.7800913 C64.116702,10.7800913 63.5217667,10.8157737 63.0016273,10.8833643 L63.0016273,17.384078 C63.4349625,17.4197604 63.9880395,17.4636772 64.4923963,17.4636772 C67.0978969,17.4636772 68.5347993,16.2446433 68.5347993,14.0326783 C68.5347993,12.5323024 67.5590232,10.7800913 64.8179981,10.7800913 Z M142.771666,6.67524416 L141.777706,6.67524416 L141.777706,27.4684701 L145.89113,27.4684701 L145.89113,15.7365123 L157.745575,27.8551436 L158.559408,27.8551436 L158.559408,7.06054534 L154.449414,7.06054534 L154.449414,18.6096308 L142.771666,6.67524416 Z M169.241823,10.878561 L169.241823,27.4684701 L173.355591,27.4684701 L173.355591,10.878561 L179.572904,10.878561 L179.572904,7.06054534 L163.010786,7.06054534 L163.010786,10.878561 L169.241823,10.878561 Z M197.719457,13.93215 C197.719457,18.3083891 194.497749,21.1369046 189.512851,21.1369046 C189.156713,21.1369046 188.78342,21.1194066 188.425224,21.1025947 L188.169958,21.0899 L187.938365,21.083038 L187.938365,27.468127 L183.823568,27.468127 L183.823568,7.29728427 L184.160149,7.25645538 C185.88354,7.03721455 187.528361,6.93531388 189.189994,6.93531388 C194.370802,6.93531388 197.719457,9.68114232 197.719457,13.93215 Z M189.754393,10.7800913 C189.046235,10.7800913 188.452329,10.8157737 187.938708,10.8833643 L187.938708,17.384078 C188.425567,17.4242207 188.943648,17.4636772 189.437369,17.4636772 C192.039095,17.4636772 193.47291,16.2446433 193.47291,14.0326783 C193.47291,12.5323024 192.501251,10.7800913 189.754393,10.7800913 Z M123.332312,27.468127 L136.066808,27.468127 L136.066808,23.6542286 L127.45157,23.6542286 L127.45157,18.9661116 L135.244055,18.9661116 L135.244055,15.2644069 L127.45157,15.2644069 L127.45157,10.878561 L136.066808,10.878561 L136.066808,7.06397634 L123.332312,7.06397634 L123.332312,27.468127 Z M240,13.93215 C240,18.3083891 236.777949,21.1369046 231.793051,21.1369046 C231.431766,21.1369046 231.059846,21.1194066 230.700621,21.1008792 L230.453245,21.0902431 L230.217879,21.0833811 L230.217879,27.4684701 L226.112003,27.4684701 L226.112003,7.29762737 L226.443094,7.25679848 C228.164083,7.03721455 229.808561,6.93531388 231.473968,6.93531388 C236.653404,6.93531388 240,9.68114232 240,13.93215 Z M232.031505,10.7800913 C231.336728,10.7800913 230.745223,10.8157737 230.217879,10.8833643 L230.217879,17.384078 C230.705767,17.4242207 231.221446,17.4636772 231.715853,17.4636772 C234.321354,17.4636772 235.754482,16.2446433 235.754482,14.0326783 C235.754482,12.5323024 234.780421,10.7800913 232.031505,10.7800913 Z M221.896677,17.2801188 C221.896677,23.2699567 217.427115,27.7882392 211.50178,27.7882392 C205.583993,27.7882392 201.289755,23.3684263 201.289755,17.2801188 C201.289755,11.2755275 205.759317,6.74557964 211.688083,6.74557964 C217.603811,6.74557964 221.896677,11.1746562 221.896677,17.2801188 Z M217.547886,17.2801188 C217.547886,13.355056 215.049776,10.5052683 211.610199,10.5052683 C208.15038,10.5052683 205.641634,13.355056 205.641634,17.2801188 C205.641634,21.1983195 208.15038,24.0429607 211.610199,24.0429607 C215.049433,24.0429607 217.547886,21.1983195 217.547886,17.2801188 Z M83.6236464,6.68004756 L93.1662837,27.468127 L88.7787222,27.468127 L86.8810367,22.9649409 L79.6162396,22.9649409 L77.7202696,27.468127 L73.4092195,27.468127 L73.4747515,27.3332887 L82.9793048,6.66666667 L83.6236464,6.68004756 Z M81.0435352,19.5541848 L85.4441344,19.5541848 L83.2500106,14.5998224 L81.0435352,19.5541848 Z M92.2893204,10.878561 L98.5364832,10.878561 L98.5364832,27.4684701 L102.646477,27.4684701 L102.646477,10.878561 L108.857271,10.878561 L108.857271,7.06054534 L92.2893204,7.06054534 L92.2893204,10.878561 Z M113.30213,7.06397634 L117.410751,7.06397634 L117.410751,27.4684701 L113.30213,27.4684701 L113.30213,7.06397634 Z"></path><path d="M33.6406554,3.71105146 L30.0039959,0.0756734689 L11.2322306,18.8479514 L6.86229304,14.4769886 C5.78018885,13.3969348 5.1707043,11.9785633 5.14328006,10.4853518 C5.11713732,9.02571572 5.65716421,7.66834391 6.66237801,6.6608234 C7.66989851,5.65612221 9.02650142,5.11558271 10.4853686,5.13941874 C11.9806305,5.16658668 13.3979768,5.77709643 14.4793121,6.85971323 L16.2985389,8.67765852 L19.9339169,5.04228053 L18.1162279,3.22459154 C16.0852962,1.19571026 13.40746,0.0490181311 10.5732799,0.00160238609 C7.70398659,-0.0473511669 5.02794446,1.02680768 3.02751262,3.02493281 C1.02631188,5.02587725 -0.0475906696,7.7062765 0.00161918466,10.5737757 C0.0526231482,13.4087247 1.19623966,16.0845105 3.22640245,18.114417 L11.2322306,26.1194763 L33.6406554,3.71105146 Z M37.5090113,7.58299556 L41.1449019,11.2186299 L19.0327614,33.3333333 L15.395333,29.6971864 L37.5090113,7.58299556 Z" fill="#0BD287"></path></g></g></g></g></svg>
